<?xml version="1.0" encoding="UTF-8"?>
<svg id="Layer_1" xmlns="http://www.w3.org/2000/svg" version="1.1" xmlns:xlink="http://www.w3.org/1999/xlink" viewBox="0 0 2837.11 1578.31">
  <!-- Generator: Adobe Illustrator 30.2.0, SVG Export Plug-In . SVG Version: 2.1.1 Build 105)  -->
  <defs>
    <style>
      .st0 {
        fill: url(#linear-gradient2);
      }

      .st1 {
        font-size: 54.74px;
      }

      .st1, .st2 {
        font-family: ArialMT, Arial;
      }

      .st1, .st3 {
        fill: #132449;
      }

      .st4 {
        fill: #fff;
      }

      .st5 {
        fill: url(#linear-gradient1);
      }

      .st6 {
        fill: none;
      }

      .st7 {
        fill: url(#Gold);
      }

      .st8 {
        fill: url(#linear-gradient4);
      }

      .st9 {
        fill: url(#linear-gradient5);
      }

      .st10 {
        fill: url(#linear-gradient3);
      }

      .st3 {
        font-size: 196.23px;
      }

      .st11 {
        fill: url(#linear-gradient);
      }

      .st12 {
        font-family: Arial-BoldMT, Arial;
        font-weight: 700;
      }
    </style>
    <linearGradient id="linear-gradient" x1="241.34" y1="702.76" x2="931.93" y2="702.76" gradientUnits="userSpaceOnUse">
      <stop offset=".38" stop-color="#1c75bc"/>
      <stop offset=".51" stop-color="#1c6db1"/>
      <stop offset=".73" stop-color="#1c5895"/>
      <stop offset=".94" stop-color="#1d3f74"/>
    </linearGradient>
    <linearGradient id="Gold" x1="496.06" y1="891.17" x2="660.8" y2="891.17" gradientUnits="userSpaceOnUse">
      <stop offset="0" stop-color="#fee7a2"/>
      <stop offset=".5" stop-color="#ffcb05"/>
      <stop offset="1" stop-color="#f8ac1c"/>
    </linearGradient>
    <linearGradient id="linear-gradient1" x1="964.49" y1="703.85" x2="1339.46" y2="703.85" gradientUnits="userSpaceOnUse">
      <stop offset="0" stop-color="#002856"/>
      <stop offset=".51" stop-color="#002856"/>
      <stop offset=".55" stop-color="#002856"/>
      <stop offset=".61" stop-color="#002856"/>
      <stop offset="1" stop-color="#002856"/>
    </linearGradient>
    <linearGradient id="linear-gradient2" x1="2258.21" y1="938.96" x2="2356.7" y2="938.96" gradientUnits="userSpaceOnUse">
      <stop offset="0" stop-color="#002856"/>
      <stop offset=".33" stop-color="#002856"/>
      <stop offset="1" stop-color="#002856"/>
    </linearGradient>
    <linearGradient id="linear-gradient3" x1="1373.32" y1="758.55" x2="1476.91" y2="822.7" gradientUnits="userSpaceOnUse">
      <stop offset="0" stop-color="#002856"/>
      <stop offset=".33" stop-color="#002856"/>
      <stop offset="1" stop-color="#002856"/>
    </linearGradient>
    <linearGradient id="linear-gradient4" x1="1478.27" y1="785.82" x2="1782.38" y2="785.82" gradientUnits="userSpaceOnUse">
      <stop offset="0" stop-color="#002856"/>
      <stop offset=".33" stop-color="#002856"/>
      <stop offset=".9" stop-color="#002856"/>
      <stop offset="1" stop-color="#002856"/>
    </linearGradient>
    <linearGradient id="linear-gradient5" x1="1851.99" y1="785.82" x2="2269.01" y2="785.82" gradientUnits="userSpaceOnUse">
      <stop offset="0" stop-color="#002856"/>
      <stop offset=".33" stop-color="#002856"/>
      <stop offset="1" stop-color="#002856"/>
    </linearGradient>
  </defs>
  <path class="st11" d="M753.56,402.54h-336.77c-2.06,0-3.96,1.1-4.99,2.88l-169.4,293.41c-1.4,2.43-1.4,5.42,0,7.85l166.55,288.48,3.51,6.09c.62,1.07,1.76,1.73,3,1.73h340.99c2.27,0,4.37-1.21,5.5-3.18l168.66-292.12c1.76-3.04,1.76-6.79,0-9.83l-167.21-289.62c-2.03-3.52-5.78-5.68-9.84-5.68Z"/>
  <path class="st4" d="M668.86,1014.15c1.3-4.28,2-8.83,2-13.56v-135.12c0-46.15-35.92-83.55-80.22-83.55h-6.86c-44.95,0-81.39,37.95-81.39,84.77v133.9c0,4.73.71,9.28,2,13.56h164.46Z"/>
  <path class="st7" d="M660.42,1002.87c.24-2.57.38-5.18.38-7.81v-133.21c0-45.49-36.88-82.37-82.37-82.37h0c-45.49,0-82.37,36.88-82.37,82.37v133.21c0,2.64.14,5.24.38,7.81h163.98Z"/>
  <path class="st6" d="M521.37,743.74h131.42c10.15,0,18.39,8.24,18.39,18.39v217.73h-168.78v-217.15c0-10.47,8.5-18.97,18.97-18.97Z"/>
  <path class="st4" d="M636.49,777.73"/>
  <circle class="st4" cx="688.42" cy="693.61" r="41.42"/>
  <circle class="st4" cx="633.23" cy="591.37" r="20.71"/>
  <path class="st5" d="M1086.33,607.19c34.32-33.86,66.92-48.11,109.83-48.11s79.8,16.04,106.4,46.33c26.6,30.29,36.9,66.82,36.9,130.97v264.61h-121.84v-241.44c0-40.09-3.43-56.13-13.73-71.27-10.29-14.26-27.46-22.27-48.05-22.27s-40.33,8.01-53.2,21.38c-13.73,15.15-16.3,27.62-16.3,72.17v241.44h-121.84V406.73h121.84v200.46Z"/>
  <rect class="st0" x="2258.21" y="874.48" width="98.48" height="128.96"/>
  <rect class="st10" x="1356.43" y="570.66" width="121.84" height="430.32"/>
  <path class="st8" d="M1626.72,1000.98l-148.44-430.32h127.85l46.33,164.82c8.58,30.29,18.87,71.28,32.61,123.84,9.44-48.11,19.73-98.01,25.74-123.84l42.04-164.82h130.42l-140.72,430.32h-115.83Z"/>
  <path class="st9" d="M1955.58,822.79c7.72,58.8,41.19,90.88,93.53,90.88,32.61,0,55.77-11.58,72.08-38.31h123.56c-23.17,83.75-100.39,137.21-199.07,137.21-127.85,0-212.79-90.88-212.79-226.3s86.66-227.19,211.94-227.19c87.52,0,153.59,45.44,184.48,126.51,14.58,37.42,20.59,77.51,20.59,137.2h-294.31ZM2124.62,733.7c-5.15-50.79-33.46-78.4-80.66-78.4s-78.09,27.62-87.52,78.4h168.18Z"/>
  <text class="st3" transform="translate(952.77 1211.23)"><tspan class="st2" x="0" y="0">by Super</tspan><tspan class="st12" x="785.4" y="0">Guardian</tspan></text>
  <text class="st1" transform="translate(2588.41 1143.45)"><tspan x="0" y="0">TM</tspan></text>
</svg>