<?xml version="1.0" encoding="utf-8"?>
<!-- Generator: Adobe Illustrator 27.2.0, SVG Export Plug-In . SVG Version: 6.00 Build 0)  -->
<svg version="1.1" id="Layer_1" xmlns="http://www.w3.org/2000/svg" xmlns:xlink="http://www.w3.org/1999/xlink" x="0px" y="0px"
	 viewBox="0 0 2359.9 1158.7" style="enable-background:new 0 0 2359.9 1158.7;" xml:space="preserve">
<style type="text/css">
	.st0{fill:url(#SVGID_1_);}
	.st1{fill:#FFFFFF;}
	.st2{fill:url(#SVGID_00000180356608537300165010000003334786123178859442_);}
	.st3{fill:none;}
	.st4{fill:url(#SVGID_00000107550427768934328600000003064114234220328121_);}
	.st5{fill:url(#SVGID_00000067938708778703909430000007606208574076001428_);}
	.st6{fill:url(#SVGID_00000060745745015273952380000009463503095349983378_);}
	.st7{fill:url(#SVGID_00000046312183110076438900000001622837722543464847_);}
	.st8{fill:url(#SVGID_00000044881780252764249670000001919433899320805805_);}
</style>
<linearGradient id="SVGID_1_" gradientUnits="userSpaceOnUse" x1="115.1066" y1="533.9518" x2="805.6954" y2="533.9518">
	<stop  offset="0.3823" style="stop-color:#1C75BC"/>
	<stop  offset="0.4907" style="stop-color:#1E6EAF"/>
	<stop  offset="0.6775" style="stop-color:#1E5D98"/>
	<stop  offset="0.9188" style="stop-color:#1C4278"/>
	<stop  offset="0.9449" style="stop-color:#1D3F74"/>
</linearGradient>
<path class="st0" d="M627.3,233.7H290.6c-2.1,0-4,1.1-5,2.9L116.2,530c-1.4,2.4-1.4,5.4,0,7.8l166.6,288.5l3.5,6.1
	c0.6,1.1,1.8,1.7,3,1.7h341c2.3,0,4.4-1.2,5.5-3.2l168.7-292.1c1.8-3,1.8-6.8,0-9.8L637.2,239.4
	C635.1,235.9,631.4,233.7,627.3,233.7z"/>
<path class="st1" d="M542.6,845.3c1.3-4.3,2-8.8,2-13.6V696.7c0-46.1-35.9-83.6-80.2-83.6h-6.9c-44.9,0-81.4,38-81.4,84.8v133.9
	c0,4.7,0.7,9.3,2,13.6H542.6z"/>
<linearGradient id="SVGID_00000115488387474135887460000005298548437343703715_" gradientUnits="userSpaceOnUse" x1="369.8259" y1="722.3632" x2="534.5642" y2="722.3632">
	<stop  offset="0" style="stop-color:#FEE7A2"/>
	<stop  offset="0.5" style="stop-color:#FFCB05"/>
	<stop  offset="1" style="stop-color:#F8AC1C"/>
</linearGradient>
<path style="fill:url(#SVGID_00000115488387474135887460000005298548437343703715_);" d="M534.2,834.1c0.2-2.6,0.4-5.2,0.4-7.8V693
	c0-45.5-36.9-82.4-82.4-82.4h0c-45.5,0-82.4,36.9-82.4,82.4v133.2c0,2.6,0.1,5.2,0.4,7.8H534.2z"/>
<path class="st3" d="M544.9,811.1H376.2V593.9c0-10.5,8.5-19,19-19h131.4c10.2,0,18.4,8.2,18.4,18.4V811.1z"/>
<path class="st1" d="M510.3,608.9"/>
<circle class="st1" cx="562.2" cy="524.8" r="41.4"/>
<circle class="st1" cx="507" cy="422.6" r="20.7"/>
<linearGradient id="SVGID_00000137853329557513647820000017521367561391255733_" gradientUnits="userSpaceOnUse" x1="838.2552" y1="535.0462" x2="1213.2242" y2="535.0462">
	<stop  offset="0" style="stop-color:#002856"/>
	<stop  offset="0.5145" style="stop-color:#002856"/>
	<stop  offset="0.5469" style="stop-color:#002856"/>
	<stop  offset="0.6107" style="stop-color:#002856"/>
	<stop  offset="0.9988" style="stop-color:#002856"/>
</linearGradient>
<path style="fill:url(#SVGID_00000137853329557513647820000017521367561391255733_);" d="M960.1,438.4
	c34.3-33.9,66.9-48.1,109.8-48.1c42,0,79.8,16,106.4,46.3c26.6,30.3,36.9,66.8,36.9,131v264.6h-121.8V590.7
	c0-40.1-3.4-56.1-13.7-71.3c-10.3-14.3-27.5-22.3-48-22.3c-20.6,0-40.3,8-53.2,21.4c-13.7,15.1-16.3,27.6-16.3,72.2v241.4H838.3
	V237.9h121.8V438.4z"/>
<linearGradient id="SVGID_00000011014356631464249630000007561901490568400564_" gradientUnits="userSpaceOnUse" x1="2131.9802" y1="770.1542" x2="2230.4641" y2="770.1542">
	<stop  offset="0" style="stop-color:#002856"/>
	<stop  offset="0.3329" style="stop-color:#002856"/>
	<stop  offset="0.9988" style="stop-color:#002856"/>
</linearGradient>
<rect x="2132" y="705.7" style="fill:url(#SVGID_00000011014356631464249630000007561901490568400564_);" width="98.5" height="129"/>
<linearGradient id="SVGID_00000068678437971810006690000008700526379581109434_" gradientUnits="userSpaceOnUse" x1="1247.0859" y1="589.7407" x2="1350.6718" y2="653.8961">
	<stop  offset="0" style="stop-color:#002856"/>
	<stop  offset="0.3329" style="stop-color:#002856"/>
	<stop  offset="0.9988" style="stop-color:#002856"/>
</linearGradient>
<rect x="1230.2" y="401.9" style="fill:url(#SVGID_00000068678437971810006690000008700526379581109434_);" width="121.8" height="430.3"/>
<linearGradient id="SVGID_00000043424292285952891190000003001213195648505497_" gradientUnits="userSpaceOnUse" x1="1352.0397" y1="617.0116" x2="1656.1436" y2="617.0116">
	<stop  offset="0" style="stop-color:#002856"/>
	<stop  offset="0.3329" style="stop-color:#002856"/>
	<stop  offset="0.9016" style="stop-color:#002856"/>
	<stop  offset="0.9988" style="stop-color:#002856"/>
</linearGradient>
<path style="fill:url(#SVGID_00000043424292285952891190000003001213195648505497_);" d="M1500.5,832.2L1352,401.9h127.8l46.3,164.8
	c8.6,30.3,18.9,71.3,32.6,123.8c9.4-48.1,19.7-98,25.7-123.8l42-164.8H1757l-140.7,430.3H1500.5z"/>
<linearGradient id="SVGID_00000112613486144002223100000005458752391224933760_" gradientUnits="userSpaceOnUse" x1="1725.7574" y1="617.0116" x2="2142.7712" y2="617.0116">
	<stop  offset="0" style="stop-color:#002856"/>
	<stop  offset="0.3329" style="stop-color:#002856"/>
	<stop  offset="0.9988" style="stop-color:#002856"/>
</linearGradient>
<path style="fill:url(#SVGID_00000112613486144002223100000005458752391224933760_);" d="M1829.3,654c7.7,58.8,41.2,90.9,93.5,90.9
	c32.6,0,55.8-11.6,72.1-38.3h123.6c-23.2,83.7-100.4,137.2-199.1,137.2c-127.8,0-212.8-90.9-212.8-226.3
	c0-134.5,86.7-227.2,211.9-227.2c87.5,0,153.6,45.4,184.5,126.5c14.6,37.4,20.6,77.5,20.6,137.2H1829.3z M1998.4,564.9
	c-5.1-50.8-33.5-78.4-80.7-78.4c-47.2,0-78.1,27.6-87.5,78.4H1998.4z"/>
</svg>
