<?xml version="1.0" encoding="UTF-8"?>
<svg id="Layer_1" data-name="Layer 1" xmlns="http://www.w3.org/2000/svg" viewBox="0 0 972 576">
  <defs>
    <style>
      .cls-1, .cls-2 {
        fill-rule: evenodd;
      }

      .cls-1, .cls-3 {
        fill: #002856;
      }

      .cls-2, .cls-4 {
        fill: #f5a800;
      }
    </style>
  </defs>
  <g>
    <path class="cls-3" d="M155.95,111.59l133.95,71.25-.06,223.56-40.39-15.24-4.72-106.29c0-60.95-30.03-101.24-81.81-101.24-3.43,0-6.66.16-9.85.52l-11.08,166.18-40.08-15.2,31.6-237.79,1.76-.07c8.54,0,17.3,5.85,20.68,14.32Z"/>
    <g>
      <path class="cls-4" d="M79.52,473.66c-1.46-13.15-10.51-18.83-23.55-18.83-10.65,0-21.29,3.74-21.29,15.73,0,11.35,15.17,13.02,30.47,16.38,15.17,3.35,30.34,8.51,30.34,26.56,0,19.6-19.82,27.47-37.12,27.47-21.29,0-39.25-10.06-39.25-32.5h11.98c0,15.47,13.3,22.18,27.67,22.18,11.44,0,24.08-3.48,24.08-16.76s-15.17-14.83-30.34-18.05-30.47-7.48-30.47-24.38c0-18.7,17.16-26.95,34.46-26.95,19.43,0,34.2,8.9,34.99,29.14h-11.98Z"/>
      <path class="cls-4" d="M165.86,538.78h-10.65v-10.57h-.26c-4.79,8.25-12.51,12.12-22.35,12.12-18.09,0-23.68-10.06-23.68-24.38v-43.84h11.31v45.13c0,8.13,5.32,13.41,13.97,13.41,13.71,0,20.36-8.9,20.36-20.89v-37.66h11.31v66.67Z"/>
      <path class="cls-4" d="M183.28,472.11h11.31v9.03h.27c3.72-7.35,12.51-10.57,21.95-10.57,21.15,0,31.67,16.25,31.67,35.08s-10.38,34.69-31.4,34.69c-7.05,0-17.16-2.58-22.22-10.45h-.27v34.43h-11.31v-92.2ZM215.22,480.24c-15.17,0-21.02,12.64-21.02,25.15,0,13.15,6.12,25.27,21.69,25.27s20.62-12.77,20.62-25.79-6.65-24.63-21.29-24.63Z"/>
      <path class="cls-4" d="M320.45,517.64c-3.06,14.7-13.97,22.7-29.41,22.7-21.95,0-32.33-14.7-33-35.08,0-19.99,13.57-34.69,32.33-34.69,24.35,0,31.8,22.05,31.13,38.17h-51.49c-.4,11.6,6.39,21.92,21.42,21.92,9.31,0,15.83-4.38,17.83-13.02h11.18ZM309.54,499.07c-.53-10.45-8.65-18.83-19.83-18.83-11.84,0-18.89,8.64-19.69,18.83h39.52Z"/>
      <path class="cls-4" d="M332.82,472.11h10.64v14.06h.27c5.46-10.7,13.04-15.99,25.28-15.6v11.6c-18.23,0-24.88,10.06-24.88,26.95v29.66h-11.31v-66.67Z"/>
      <path class="cls-3" d="M446.84,528.34c-7.32,9.15-16.9,12.64-26.08,12.64-29.41,0-46.7-21.28-46.7-47.85s17.3-48.61,46.7-48.61c19.43,0,37.79,11.6,40.05,32.5h-19.96c-2.39-10.19-10.24-15.47-20.09-15.47-18.76,0-25.81,15.47-25.81,31.59s7.05,30.82,25.81,30.82c13.57,0,21.42-7.09,22.62-19.86h-21.02v-15.09h39.92v49.78h-13.31l-2.13-10.44Z"/>
      <path class="cls-3" d="M537.71,538.78h-17.96v-9.28h-.4c-4.79,7.48-13.04,11.09-21.02,11.09-20.09,0-25.15-10.96-25.15-27.47v-41.01h18.89v37.66c0,10.96,3.33,16.37,12.11,16.37,10.24,0,14.63-5.54,14.63-19.09v-34.95h18.89v66.67Z"/>
      <path class="cls-3" d="M551.27,492.62c1.07-17.15,16.9-22.31,32.33-22.31,13.71,0,30.2,2.97,30.2,18.96v34.69c0,6.06.67,12.12,2.4,14.83h-19.16c-.67-2.06-1.2-4.25-1.33-6.45-5.99,6.06-14.77,8.25-23.15,8.25-13.04,0-23.42-6.32-23.42-19.99,0-15.09,11.71-18.7,23.42-20.25,11.58-1.68,22.35-1.29,22.35-8.77,0-7.86-5.59-9.03-12.24-9.03-7.19,0-11.84,2.84-12.51,10.06h-18.89ZM594.91,506.16c-3.19,2.71-9.85,2.84-15.7,3.87-5.85,1.16-11.18,3.1-11.18,9.8s5.45,8.51,11.58,8.51c14.77,0,15.3-11.35,15.3-15.35v-6.84Z"/>
      <path class="cls-3" d="M628.43,472.11h17.96v12.38h.27c3.46-8.38,12.77-14.19,21.95-14.19,1.33,0,2.93.26,4.12.64v17.02c-1.73-.38-4.52-.64-6.79-.64-13.84,0-18.63,9.67-18.63,21.41v30.05h-18.89v-66.67Z"/>
      <path class="cls-3" d="M726.88,530.28h-.26c-4.39,7.22-12.11,10.32-20.89,10.32-20.75,0-30.87-17.28-30.87-35.72s10.24-34.56,30.47-34.56c8.11,0,16.1,3.36,20.49,9.93h-.13.26v-33.53h18.89v92.07h-17.96v-8.51ZM710.39,484.11c-12.37,0-16.63,10.32-16.63,21.28s4.93,21.4,16.63,21.4c12.51,0,16.23-10.57,16.23-21.54s-3.99-21.15-16.23-21.15Z"/>
      <path class="cls-3" d="M779.83,461.8h-18.89v-15.09h18.89v15.09ZM760.94,472.11h18.89v66.67h-18.89v-66.67Z"/>
      <path class="cls-3" d="M792.6,492.62c1.07-17.15,16.89-22.31,32.33-22.31,13.71,0,30.2,2.97,30.2,18.96v34.69c0,6.06.67,12.12,2.4,14.83h-19.16c-.67-2.06-1.2-4.25-1.33-6.45-5.99,6.06-14.77,8.25-23.15,8.25-13.04,0-23.42-6.32-23.42-19.99,0-15.09,11.71-18.7,23.42-20.25,11.58-1.68,22.35-1.29,22.35-8.77,0-7.86-5.59-9.03-12.24-9.03-7.19,0-11.85,2.84-12.51,10.06h-18.89ZM836.24,506.16c-3.19,2.71-9.84,2.84-15.7,3.87-5.85,1.16-11.17,3.1-11.17,9.8s5.45,8.51,11.57,8.51c14.77,0,15.3-11.35,15.3-15.35v-6.84Z"/>
      <path class="cls-3" d="M868.44,472.11h17.96v9.29h.4c4.79-7.48,13.04-11.09,21.02-11.09,20.09,0,25.15,10.96,25.15,27.47v41.01h-18.89v-37.65c0-10.96-3.33-16.38-12.11-16.38-10.24,0-14.63,5.55-14.63,19.09v34.95h-18.89v-66.67Z"/>
    </g>
    <polygon class="cls-3" points="135.1 11.68 258 49.25 345.23 157.37 135.1 34.77 100.82 55.09 104.42 30.21 135.1 11.68"/>
    <path class="cls-1" d="M296.34,408.87v-200.16c0-12.25,8.65-21.05,18.34-21.05,1.03,0,1.92.07,2.71.21l15.61,234.9-36.66-13.9Z"/>
    <polygon class="cls-3" points="135.1 51.08 326.37 160.6 326.37 186.88 135.1 82.67 93.56 105.29 98.36 72.15 135.1 51.08"/>
    <path class="cls-2" d="M152.61,190.94c40.79,6.71,71.75,40.18,71.75,90.65v100.34s-104.52-40.02-104.52-40.02l22.15,8.42,10.62-159.39Z"/>
  </g>
  <g>
    <path class="cls-3" d="M934.68,475.35h-2.56v-15.76h-5.62v-2.24h13.79v2.24h-5.61v15.76Z"/>
    <path class="cls-3" d="M950.56,475.35l-4.18-10.8c-.49-1.38-.89-2.56-1.21-3.73.08,1.35.13,2.81.13,3.94v10.58h-2.43v-18h3.16l4.48,11.53c.57,1.57.65,1.75,1.08,3.19.54-1.62.75-2.21,1.08-3.13l4.45-11.5h3.16v17.92h-2.43v-10.58c0-1.24.05-2.54.13-3.94-.43,1.46-.76,2.48-1.32,3.94l-4.08,10.58h-2.02Z"/>
  </g>
</svg>